<?xml version="1.0" encoding="UTF-8"?>
<svg xmlns="http://www.w3.org/2000/svg" xmlns:xlink="http://www.w3.org/1999/xlink" width="125pt" height="80pt" viewBox="0 0 125 80" version="1.1">
<g id="surface1">
<path style=" stroke:none;fill-rule:nonzero;fill:rgb(0%,0%,0%);fill-opacity:1;" d="M 41.347656 44.820312 L 30.171875 44.820312 C 28.332031 44.820312 26.816406 43.984375 26.816406 42.953125 L 26.816406 36.730469 C 26.816406 35.699219 28.332031 34.859375 30.171875 34.859375 L 41.347656 34.859375 C 43.195312 34.859375 44.703125 35.699219 44.703125 36.730469 L 44.703125 42.953125 C 44.703125 43.984375 43.195312 44.820312 41.347656 44.820312 Z M 71.519531 42.953125 L 71.519531 36.730469 C 71.519531 35.699219 70.015625 34.859375 68.171875 34.859375 L 56.992188 34.859375 C 55.15625 34.859375 53.644531 35.699219 53.644531 36.730469 L 53.644531 42.953125 C 53.644531 43.984375 55.15625 44.820312 56.992188 44.820312 L 68.171875 44.820312 C 70.015625 44.820312 71.519531 43.984375 71.519531 42.953125 Z M 98.339844 42.953125 L 98.339844 36.730469 C 98.339844 35.699219 96.835938 34.859375 94.988281 34.859375 L 83.8125 34.859375 C 81.972656 34.859375 80.460938 35.699219 80.460938 36.730469 L 80.460938 42.953125 C 80.460938 43.984375 81.972656 44.820312 83.8125 44.820312 L 94.988281 44.820312 C 96.835938 44.820312 98.339844 43.984375 98.339844 42.953125 Z M 71.519531 57.894531 L 71.519531 51.671875 C 71.519531 50.644531 70.015625 49.800781 68.171875 49.800781 L 56.992188 49.800781 C 55.15625 49.800781 53.644531 50.644531 53.644531 51.671875 L 53.644531 57.894531 C 53.644531 58.921875 55.15625 59.761719 56.992188 59.761719 L 68.171875 59.761719 C 70.015625 59.761719 71.519531 58.921875 71.519531 57.894531 Z M 44.703125 57.894531 L 44.703125 51.671875 C 44.703125 50.644531 43.195312 49.800781 41.347656 49.800781 L 30.171875 49.800781 C 28.332031 49.800781 26.816406 50.644531 26.816406 51.671875 L 26.816406 57.894531 C 26.816406 58.921875 28.332031 59.761719 30.171875 59.761719 L 41.347656 59.761719 C 43.195312 59.761719 44.703125 58.921875 44.703125 57.894531 Z M 98.339844 57.894531 L 98.339844 51.671875 C 98.339844 50.644531 96.835938 49.800781 94.988281 49.800781 L 83.8125 49.800781 C 81.972656 49.800781 80.460938 50.644531 80.460938 51.671875 L 80.460938 57.894531 C 80.460938 58.921875 81.972656 59.761719 83.8125 59.761719 L 94.988281 59.761719 C 96.835938 59.761719 98.339844 58.921875 98.339844 57.894531 Z M 125.164062 17.433594 L 125.164062 72.214844 C 125.164062 76.335938 119.15625 79.683594 111.753906 79.683594 L 13.414062 79.683594 C 6.003906 79.683594 0 76.335938 0 72.214844 L 0 17.433594 C 0 13.308594 6.003906 9.960938 13.414062 9.960938 L 26.816406 9.960938 L 26.816406 1.867188 C 26.816406 0.839844 28.332031 0 30.171875 0 L 41.347656 0 C 43.195312 0 44.703125 0.839844 44.703125 1.867188 L 44.703125 9.960938 L 80.460938 9.960938 L 80.460938 1.867188 C 80.460938 0.839844 81.972656 0 83.8125 0 L 94.988281 0 C 96.835938 0 98.339844 0.839844 98.339844 1.867188 L 98.339844 9.960938 L 111.753906 9.960938 C 119.15625 9.960938 125.164062 13.308594 125.164062 17.433594 Z M 111.753906 71.28125 L 111.753906 24.90625 L 13.414062 24.90625 L 13.414062 71.28125 C 13.414062 71.792969 14.164062 72.214844 15.082031 72.214844 L 110.078125 72.214844 C 110.996094 72.214844 111.753906 71.792969 111.753906 71.28125 Z M 111.753906 71.28125 "/>
</g>
</svg>
