<svg id="Layer_1" data-name="Layer 1" xmlns="http://www.w3.org/2000/svg" viewBox="0 0 355 189.11"><defs><style>.cls-1{fill:#0088ad;}.cls-2{fill:#d9edec;}.cls-3{fill:none;stroke:#d9edec;stroke-linecap:round;stroke-linejoin:round;stroke-width:1.05px;}</style></defs><title>L</title><polygon class="cls-1" points="356.77 189.11 -8.32 191.8 -8.32 -2.31 356.77 -5 356.77 189.11"/><path class="cls-2" d="M171.78,63.65h-7.45V85.26h-6.14V63.65h-7.45V58.78h21Z"/><path class="cls-2" d="M196.07,85.26h-4.76a2.09,2.09,0,0,1-1.3-.37,2.4,2.4,0,0,1-.74-1l-1.56-4.62H177.64l-1.57,4.62a2.25,2.25,0,0,1-.71.92,2,2,0,0,1-1.28.4h-4.8l10.25-26.48h6.29Zm-9.76-10.12-2.46-7.25c-.18-.46-.37-1-.58-1.63s-.41-1.3-.62-2c-.18.73-.37,1.42-.58,2.05s-.4,1.18-.58,1.64l-2.44,7.21Z"/><path class="cls-2" d="M214.12,80.36v4.9h-16V58.78h6.14V80.36Z"/><path class="cls-2" d="M223.42,63.51v6.18h8.33v4.54h-8.33v6.31h10.87v4.72h-17V58.78h17v4.73Z"/><path class="cls-2" d="M261.19,58.78V85.26H258A2.81,2.81,0,0,1,256.8,85a2.91,2.91,0,0,1-1-.79l-12.49-15.8c0,.48.08.93.1,1.38s0,.85,0,1.24V85.26h-5.42V58.78h3.24a6,6,0,0,1,.67,0,1.55,1.55,0,0,1,.49.14,1.71,1.71,0,0,1,.42.28,4.65,4.65,0,0,1,.45.49l12.6,15.9c-.06-.51-.11-1-.13-1.48s0-.93,0-1.35v-14Z"/><path class="cls-2" d="M290.34,72a13.85,13.85,0,0,1-1,5.3,12.35,12.35,0,0,1-2.79,4.2,12.65,12.65,0,0,1-4.33,2.76,15.37,15.37,0,0,1-5.63,1H266.32V58.78H276.6a15.37,15.37,0,0,1,5.63,1,12.82,12.82,0,0,1,4.33,2.77,12.27,12.27,0,0,1,2.79,4.18A13.86,13.86,0,0,1,290.34,72Zm-6.29,0a11.51,11.51,0,0,0-.5-3.54,7.54,7.54,0,0,0-1.47-2.68,6.28,6.28,0,0,0-2.33-1.69,8,8,0,0,0-3.15-.59h-4.11v17h4.11a8,8,0,0,0,3.15-.59,6.28,6.28,0,0,0,2.33-1.69,7.54,7.54,0,0,0,1.47-2.68A11.62,11.62,0,0,0,284.05,72Z"/><path class="cls-2" d="M153.77,97.72v3.56h4.51v1.78h-4.51V108h-2.24v-12h7.58v1.78Z"/><path class="cls-2" d="M171.62,102a6.55,6.55,0,0,1-.44,2.45,5.78,5.78,0,0,1-1.23,1.95,5.72,5.72,0,0,1-1.92,1.28,7,7,0,0,1-5,0,5.59,5.59,0,0,1-3.16-3.23,7,7,0,0,1,0-4.9,5.59,5.59,0,0,1,3.16-3.23,6.46,6.46,0,0,1,2.49-.46,6.81,6.81,0,0,1,1.72.21,5.89,5.89,0,0,1,1.48.6,5.53,5.53,0,0,1,1.21.94,6.12,6.12,0,0,1,.91,1.23,6.58,6.58,0,0,1,.57,1.48A7,7,0,0,1,171.62,102Zm-2.28,0a5.39,5.39,0,0,0-.27-1.77,3.81,3.81,0,0,0-.76-1.34,3.3,3.3,0,0,0-1.19-.84A4.45,4.45,0,0,0,164,98a3.42,3.42,0,0,0-1.2.84,3.81,3.81,0,0,0-.76,1.34,5.94,5.94,0,0,0,0,3.54,3.68,3.68,0,0,0,.76,1.33,3.3,3.3,0,0,0,1.2.84,4.45,4.45,0,0,0,3.16,0,3.18,3.18,0,0,0,1.19-.84,3.68,3.68,0,0,0,.76-1.33A5.39,5.39,0,0,0,169.34,102Z"/><path class="cls-2" d="M182.31,108h-2a.88.88,0,0,1-.83-.45l-2.53-3.85a1,1,0,0,0-.31-.31,1.12,1.12,0,0,0-.5-.09h-1V108h-2.23v-12h3.66a7.62,7.62,0,0,1,2.1.26,3.91,3.91,0,0,1,1.43.71A2.74,2.74,0,0,1,181,98a3.53,3.53,0,0,1,.27,1.4,3.64,3.64,0,0,1-.18,1.15,3.3,3.3,0,0,1-.52,1,3.41,3.41,0,0,1-.83.77,4.27,4.27,0,0,1-1.12.52,2.78,2.78,0,0,1,.4.3,2.2,2.2,0,0,1,.33.4Zm-5.75-6.3a3.35,3.35,0,0,0,1.1-.16,2,2,0,0,0,.77-.44,1.69,1.69,0,0,0,.45-.66,2.23,2.23,0,0,0,.15-.83,1.72,1.72,0,0,0-.6-1.41,2.87,2.87,0,0,0-1.84-.49h-1.43v4Z"/><path class="cls-2" d="M197,102a6.6,6.6,0,0,1-.44,2.43,5.74,5.74,0,0,1-1.24,1.9,5.63,5.63,0,0,1-1.92,1.24,6.85,6.85,0,0,1-2.49.44h-4.58v-12h4.58a6.65,6.65,0,0,1,2.49.45,5.48,5.48,0,0,1,1.92,1.24,5.6,5.6,0,0,1,1.24,1.89A6.6,6.6,0,0,1,197,102Zm-2.3,0a5.4,5.4,0,0,0-.26-1.77,3.52,3.52,0,0,0-.75-1.33,3.3,3.3,0,0,0-1.2-.84,4.19,4.19,0,0,0-1.58-.29h-2.34v8.46h2.34a4.19,4.19,0,0,0,1.58-.29,3.3,3.3,0,0,0,1.2-.84,3.52,3.52,0,0,0,.75-1.33A5.4,5.4,0,0,0,194.69,102Z"/><path class="cls-2" d="M208.21,108h-1.72a.73.73,0,0,1-.48-.15.82.82,0,0,1-.27-.36l-.9-2.45h-5l-.89,2.45a.84.84,0,0,1-.26.35.77.77,0,0,1-.48.16h-1.74l4.73-12h2.27Zm-3.94-4.54-1.47-4c-.07-.17-.14-.38-.22-.63s-.16-.5-.23-.79c-.07.29-.15.55-.23.8s-.15.46-.22.64l-1.46,4Z"/><path class="cls-2" d="M216,97.78h-3.62V108h-2.23V97.78h-3.63V95.94H216Z"/><path class="cls-2" d="M226.05,108h-1.73a.72.72,0,0,1-.47-.15.82.82,0,0,1-.27-.36l-.9-2.45h-5l-.9,2.45a.82.82,0,0,1-.25.35.77.77,0,0,1-.48.16h-1.74l4.73-12h2.27Zm-3.94-4.54-1.47-4c-.07-.17-.14-.38-.22-.63s-.16-.5-.23-.79c-.08.29-.15.55-.23.8s-.15.46-.22.64l-1.46,4Z"/><path class="cls-2" d="M231.69,108h-2.24v-12h2.24Z"/><path class="cls-2" d="M243.84,95.94v12h-1.15a1,1,0,0,1-.44-.09,1.12,1.12,0,0,1-.34-.29l-6.28-8c0,.36.05.7.05,1V108h-2v-12h1.17l.25,0a.35.35,0,0,1,.18.05.54.54,0,0,1,.16.1l.16.19,6.3,8c0-.19,0-.38,0-.57s0-.36,0-.52V95.94Z"/><path class="cls-2" d="M254.24,97.78h-3.62V108h-2.23V97.78h-3.63V95.94h9.48Z"/><path class="cls-2" d="M257.4,97.72v3.33h4.2v1.72h-4.2v3.4h5.33V108h-7.57v-12h7.57v1.78Z"/><path class="cls-2" d="M273.7,101.93v4.86a6.42,6.42,0,0,1-1.95,1,7.59,7.59,0,0,1-2.22.31,7.24,7.24,0,0,1-2.66-.46,6,6,0,0,1-2-1.27,5.66,5.66,0,0,1-1.3-1.94,7.11,7.11,0,0,1,0-5,5.49,5.49,0,0,1,1.25-2,5.61,5.61,0,0,1,2-1.26,7.11,7.11,0,0,1,2.59-.45,7.35,7.35,0,0,1,1.37.12,5.81,5.81,0,0,1,1.18.32,4.81,4.81,0,0,1,1,.49,5.9,5.9,0,0,1,.83.64l-.64,1a.6.6,0,0,1-.39.3.78.78,0,0,1-.53-.12l-.55-.32A3.85,3.85,0,0,0,271,98a4.55,4.55,0,0,0-.75-.19,5.5,5.5,0,0,0-1-.08,4.16,4.16,0,0,0-1.61.3,3.34,3.34,0,0,0-1.22.86,3.7,3.7,0,0,0-.78,1.34,5,5,0,0,0-.28,1.74,5.26,5.26,0,0,0,.3,1.84,3.7,3.7,0,0,0,.83,1.37,3.48,3.48,0,0,0,1.29.86,5.06,5.06,0,0,0,2.87.15,5.82,5.82,0,0,0,1-.38v-2.18h-1.52a.45.45,0,0,1-.33-.12.4.4,0,0,1-.12-.29v-1.27Z"/><path class="cls-2" d="M284.57,108h-2a.88.88,0,0,1-.83-.45l-2.52-3.85a1,1,0,0,0-.32-.31,1.09,1.09,0,0,0-.5-.09h-.95V108h-2.24v-12h3.66a7.52,7.52,0,0,1,2.1.26,3.88,3.88,0,0,1,1.44.71,2.84,2.84,0,0,1,.83,1.09,3.71,3.71,0,0,1,.26,1.4,3.64,3.64,0,0,1-.18,1.15,3.52,3.52,0,0,1-.51,1,3.6,3.6,0,0,1-.83.77,4.34,4.34,0,0,1-1.13.52,2,2,0,0,1,.4.3,2.2,2.2,0,0,1,.33.4Zm-5.75-6.3a3.31,3.31,0,0,0,1.1-.16,2,2,0,0,0,.78-.44,1.69,1.69,0,0,0,.45-.66,2.23,2.23,0,0,0,.15-.83,1.72,1.72,0,0,0-.6-1.41,2.9,2.9,0,0,0-1.85-.49h-1.42v4Z"/><path class="cls-2" d="M295.51,108h-1.73a.74.74,0,0,1-.48-.15.82.82,0,0,1-.27-.36l-.9-2.45h-5l-.9,2.45a.84.84,0,0,1-.26.35.76.76,0,0,1-.47.16h-1.75l4.73-12h2.28Zm-3.95-4.54-1.46-4a5.43,5.43,0,0,1-.23-.63c-.08-.24-.15-.5-.23-.79-.07.29-.15.55-.23.8s-.15.46-.22.64l-1.45,4Z"/><path class="cls-2" d="M303.31,97.78h-3.63V108h-2.23V97.78h-3.62V95.94h9.48Z"/><path class="cls-2" d="M306.46,108h-2.24v-12h2.24Z"/><path class="cls-2" d="M319.94,102a6.55,6.55,0,0,1-.44,2.45,5.78,5.78,0,0,1-1.23,1.95,5.72,5.72,0,0,1-1.92,1.28,7,7,0,0,1-5,0,5.93,5.93,0,0,1-1.92-1.28,5.8,5.8,0,0,1-1.24-1.95,7,7,0,0,1,0-4.9,5.8,5.8,0,0,1,1.24-2,5.93,5.93,0,0,1,1.92-1.28,6.46,6.46,0,0,1,2.49-.46,6.81,6.81,0,0,1,1.72.21,5.89,5.89,0,0,1,1.48.6,5.53,5.53,0,0,1,1.21.94,5.8,5.8,0,0,1,1.48,2.71A7,7,0,0,1,319.94,102Zm-2.28,0a5.39,5.39,0,0,0-.27-1.77,3.81,3.81,0,0,0-.76-1.34,3.3,3.3,0,0,0-1.19-.84,4.45,4.45,0,0,0-3.16,0,3.42,3.42,0,0,0-1.2.84,3.81,3.81,0,0,0-.76,1.34,5.94,5.94,0,0,0,0,3.54,3.68,3.68,0,0,0,.76,1.33,3.3,3.3,0,0,0,1.2.84,4.45,4.45,0,0,0,3.16,0,3.18,3.18,0,0,0,1.19-.84,3.68,3.68,0,0,0,.76-1.33A5.39,5.39,0,0,0,317.66,102Z"/><path class="cls-2" d="M331.37,95.94v12h-1.14a1,1,0,0,1-.45-.09,1.12,1.12,0,0,1-.34-.29l-6.28-8a9.09,9.09,0,0,1,0,1V108h-2v-12h1.17l.24,0a.41.41,0,0,1,.19.05.65.65,0,0,1,.15.1l.16.19,6.3,8c0-.19,0-.38,0-.57s0-.36,0-.52V95.94Z"/><path class="cls-2" d="M162.16,128.65h-2a1.43,1.43,0,0,1-.51-.08,1.16,1.16,0,0,1-.41-.31l-.83-.86a6.24,6.24,0,0,1-1.77,1,6.09,6.09,0,0,1-2.12.36,4.27,4.27,0,0,1-1.36-.23,3.82,3.82,0,0,1-1.19-.69,3.42,3.42,0,0,1-.84-1.08,3.24,3.24,0,0,1-.32-1.44,3.21,3.21,0,0,1,.18-1.07,3.53,3.53,0,0,1,.51-.93,3.79,3.79,0,0,1,.77-.78,5.66,5.66,0,0,1,1-.59,4.85,4.85,0,0,1-.65-1.22,3.75,3.75,0,0,1-.2-1.18,3.19,3.19,0,0,1,.23-1.19,2.83,2.83,0,0,1,.66-1,3.12,3.12,0,0,1,1.07-.66,3.76,3.76,0,0,1,1.43-.25,3.54,3.54,0,0,1,1.3.23,3.21,3.21,0,0,1,1,.59,2.83,2.83,0,0,1,.65.86,2.72,2.72,0,0,1,.28,1l-1.3.27a.44.44,0,0,1-.54-.31,2,2,0,0,0-.19-.42,1.87,1.87,0,0,0-.29-.34,1.49,1.49,0,0,0-.39-.23,1.36,1.36,0,0,0-.51-.09,1.57,1.57,0,0,0-.63.12,1.39,1.39,0,0,0-.46.33,1.31,1.31,0,0,0-.28.47,1.56,1.56,0,0,0-.1.57,1.86,1.86,0,0,0,.05.48,1.74,1.74,0,0,0,.16.47,4.57,4.57,0,0,0,.3.48,5.25,5.25,0,0,0,.47.52l3.19,3.32a6,6,0,0,0,.44-1.11,5.84,5.84,0,0,0,.21-1.18.53.53,0,0,1,.14-.3.37.37,0,0,1,.29-.12h1.28a7.19,7.19,0,0,1-.31,2.09,6.94,6.94,0,0,1-.88,1.84Zm-8-5.62a2.88,2.88,0,0,0-1,1,2.28,2.28,0,0,0-.31,1.17,2.14,2.14,0,0,0,.16.82,2,2,0,0,0,.43.62,1.86,1.86,0,0,0,.63.39,2.19,2.19,0,0,0,.77.14,3.85,3.85,0,0,0,1.34-.23,4,4,0,0,0,1.09-.64Z"/><path class="cls-2" d="M170.4,116.64a7.89,7.89,0,0,1,2,.22,3.71,3.71,0,0,1,1.37.64,2.53,2.53,0,0,1,.79,1,3.54,3.54,0,0,1,.25,1.33,2.37,2.37,0,0,1-.13.81,2.43,2.43,0,0,1-.38.73,3,3,0,0,1-.67.61,3.89,3.89,0,0,1-1,.46c1.65.37,2.48,1.27,2.48,2.68a3.45,3.45,0,0,1-.29,1.41,3.21,3.21,0,0,1-.85,1.12,4,4,0,0,1-1.37.73,5.88,5.88,0,0,1-1.86.27h-4.54v-12Zm-1.9,1.72v3.48h1.77a3,3,0,0,0,1.74-.42,1.51,1.51,0,0,0,.58-1.32,1.55,1.55,0,0,0-.53-1.34,2.81,2.81,0,0,0-1.66-.4Zm2.26,8.54a3.44,3.44,0,0,0,1-.14,1.86,1.86,0,0,0,.68-.4,1.52,1.52,0,0,0,.37-.59,2.28,2.28,0,0,0,.11-.7,1.71,1.71,0,0,0-.13-.7,1.29,1.29,0,0,0-.39-.54,1.88,1.88,0,0,0-.68-.33,3.73,3.73,0,0,0-1-.12H168.5v3.52Z"/><path class="cls-2" d="M178.78,128.65h-2.24v-12h2.24Z"/><path class="cls-2" d="M190.71,122.63v4.86a6.62,6.62,0,0,1-2,1,7.59,7.59,0,0,1-2.22.31,7.46,7.46,0,0,1-2.66-.45,6,6,0,0,1-2-1.28,5.66,5.66,0,0,1-1.3-1.94,7.11,7.11,0,0,1,0-5,5.45,5.45,0,0,1,3.21-3.21,7.11,7.11,0,0,1,2.59-.45,7.35,7.35,0,0,1,1.37.12,6.54,6.54,0,0,1,1.18.32,4.81,4.81,0,0,1,1,.49,6.75,6.75,0,0,1,.83.64l-.64,1a.59.59,0,0,1-.39.29.68.68,0,0,1-.53-.12l-.54-.32a4.45,4.45,0,0,0-.62-.27,4.55,4.55,0,0,0-.75-.19,5.5,5.5,0,0,0-1-.08,4.16,4.16,0,0,0-1.61.3,3.34,3.34,0,0,0-1.22.86,3.79,3.79,0,0,0-.78,1.34,5,5,0,0,0-.28,1.74,5.26,5.26,0,0,0,.3,1.84,3.7,3.7,0,0,0,.83,1.37,3.57,3.57,0,0,0,1.29.86,4.54,4.54,0,0,0,1.69.29,4.25,4.25,0,0,0,1.18-.14,5.82,5.82,0,0,0,1-.38V124.3h-1.52a.45.45,0,0,1-.33-.12.38.38,0,0,1-.12-.29v-1.26Z"/><path class="cls-2" d="M206.24,122.64a6.41,6.41,0,0,1-.44,2.43,5.47,5.47,0,0,1-1.23,1.9,5.67,5.67,0,0,1-1.92,1.24,6.87,6.87,0,0,1-2.5.44h-4.57v-12h4.57a6.66,6.66,0,0,1,2.5.44,5.83,5.83,0,0,1,1.92,1.24,5.47,5.47,0,0,1,1.23,1.9A6.32,6.32,0,0,1,206.24,122.64Zm-2.29,0a5.68,5.68,0,0,0-.26-1.77,3.77,3.77,0,0,0-.76-1.33,3.48,3.48,0,0,0-1.19-.84,4.21,4.21,0,0,0-1.59-.29h-2.33v8.46h2.33a4.21,4.21,0,0,0,1.59-.29,3.32,3.32,0,0,0,1.19-.83,3.86,3.86,0,0,0,.76-1.33A5.79,5.79,0,0,0,204,122.64Z"/><path class="cls-2" d="M217.47,128.65h-1.73a.72.72,0,0,1-.47-.15.77.77,0,0,1-.28-.36l-.9-2.45h-5l-.9,2.45a.72.72,0,0,1-.26.35.67.67,0,0,1-.47.16h-1.75l4.73-12h2.28Zm-3.95-4.54-1.46-4c-.07-.18-.15-.39-.23-.64l-.23-.78c-.07.28-.15.54-.22.79a6.48,6.48,0,0,1-.23.64l-1.45,4Z"/><path class="cls-2" d="M225.27,118.47h-3.62v10.18h-2.24V118.47h-3.62v-1.83h9.48Z"/><path class="cls-2" d="M235.31,128.65h-1.73a.7.7,0,0,1-.47-.15.77.77,0,0,1-.28-.36l-.9-2.45h-5l-.9,2.45a.79.79,0,0,1-.26.35.69.69,0,0,1-.47.16h-1.75l4.73-12h2.28Zm-3.95-4.54-1.46-4c-.07-.18-.15-.39-.23-.64l-.23-.78c-.07.28-.15.54-.22.79s-.16.46-.23.64l-1.45,4Z"/><path class="cls-2" d="M114.19,65.69a21.33,21.33,0,0,0-12.75,4.21l-16-19.63A7.48,7.48,0,1,0,83.1,52L99.26,71.75a21.57,21.57,0,0,0-4,5.36L35.86,48.68a7.54,7.54,0,1,0-1.11,2.64l59.32,28.4a21.31,21.31,0,0,0-1.29,6.42l-38.33-.37a7.48,7.48,0,1,0,0,2.86L92.84,89a21.31,21.31,0,0,0,1.61,6.5l-12.37,5.83a7.48,7.48,0,1,0,1.32,2.53L95.74,98a21.45,21.45,0,0,0,4,4.88L71,137.37a7.49,7.49,0,1,0,2.2,1.83l28.76-34.49a21.44,21.44,0,1,0,12.26-39Z"/><path class="cls-3" d="M114.19,61.19a26.1,26.1,0,0,1,23.57,14.89"/><path class="cls-2" d="M139.48,80.85a25.14,25.14,0,0,0-6.25-5.31l4.24-.05,3.23-2.76A25.44,25.44,0,0,0,139.48,80.85Z"/><path class="cls-3" d="M139.72,92.68a26.12,26.12,0,0,1-20.49,20.21"/><path class="cls-2" d="M114.19,113.37a25.15,25.15,0,0,0,6.69-4.74l-1,4.12,1.87,3.81A25.32,25.32,0,0,0,114.19,113.37Z"/></svg>